<?xml version="1.0" encoding="iso-8859-1"?>
<!-- Generator: Adobe Illustrator 19.0.0, SVG Export Plug-In . SVG Version: 6.00 Build 0)  -->
<svg xmlns="http://www.w3.org/2000/svg" xmlns:xlink="http://www.w3.org/1999/xlink" version="1.1" id="Capa_1" x="0px" y="0px" viewBox="0 0 512 512" style="enable-background:new 0 0 512 512;" xml:space="preserve" width="512px" height="512px">
<g>
  <g>
    <path d="M494.136,37.99h-223.5V15.001C270.636,6.716,263.92,0,255.636,0s-15.001,6.716-15.001,15.001V37.99H17.864    c-9.78,0-17.738,7.957-17.738,17.738v46.362c0,9.781,7.957,17.739,17.738,17.739h9.098v236.065    c0,24.811,20.186,44.997,44.997,44.997h168.675v29.656l-45.852,57.055c-5.189,6.458-4.161,15.9,2.296,21.09    c2.771,2.226,6.09,3.308,9.387,3.308c4.389,0,8.739-1.917,11.703-5.604l37.467-46.621l37.468,46.621    c2.964,3.688,7.313,5.604,11.702,5.604c3.297,0,6.617-1.082,9.387-3.308c6.457-5.19,7.485-14.632,2.296-21.09l-45.853-57.055    V400.89h168.675c24.812,0,44.997-20.186,44.997-44.997V119.828h9.827c9.78,0,17.738-7.957,17.738-17.739V55.727    C511.875,45.947,503.917,37.99,494.136,37.99z M454.307,355.893c0,8.268-6.727,14.996-14.996,14.996H71.96    c-8.269,0-14.996-6.727-14.996-14.996V119.828h397.343V355.893z M481.873,89.827H30.128V67.991h451.745V89.827z" fill="#f37f34"/>
  </g>
</g>
<g>
  <g>
    <path d="M192.474,276.47l-29.233-95.364c-0.836-2.604-2.736-4.612-5.706-6.019c-2.971-1.407-6.386-2.11-10.24-2.11    c-3.856,0-7.269,0.703-10.239,2.11c-2.97,1.407-4.873,3.415-5.706,6.019L102.27,276.47c-0.21,0.835-0.313,1.407-0.313,1.72    c-0.001,2.712,1.692,5.056,5.08,7.035c3.386,1.981,6.902,2.97,10.552,2.97c4.48,0,7.138-1.51,7.973-4.534l5.315-19.542h32.986    l5.315,19.542c0.833,3.024,3.49,4.534,7.973,4.534c3.646,0,7.164-0.989,10.552-2.97c3.386-1.979,5.081-4.323,5.081-7.035    C192.787,277.877,192.682,277.306,192.474,276.47z M135.881,245.361l11.411-41.898l11.412,41.898H135.881z" fill="#f37f34"/>
  </g>
</g>
<g>
  <g>
    <path d="M295.814,284.809c-2.711-3.698-6.722-6.539-12.038-8.52c8.857-3.854,13.289-12.037,13.289-24.544    c0-18.55-10.423-27.828-31.267-27.828H233.75c-2.919,0-5.421,0.652-7.504,1.954c-2.086,1.305-3.127,3.154-3.127,5.55v99.429    c0,1.981,0.963,3.7,2.893,5.159c1.927,1.46,4.507,2.188,7.738,2.188h34.706c9.588,0,17.222-2.682,22.903-8.051    c5.679-5.367,8.52-13.887,8.52-25.561v-3.283C299.878,294.009,298.523,288.509,295.814,284.809z M247.35,245.179L247.35,245.179    h16.415c2.813,0,5.003,1.094,6.565,3.283c1.563,2.188,2.346,4.743,2.346,7.66c0,2.919-0.782,5.447-2.346,7.582    c-1.563,2.137-3.752,3.205-6.565,3.205H247.35V245.179z M275.49,302.553c0,9.589-4.17,14.383-12.507,14.383H247.35v-31.266h15.634    c8.336,0,12.507,4.795,12.507,14.383V302.553z" fill="#f37f34"/>
  </g>
</g>
<g>
  <g>
    <path d="M396.501,227.313c-1.876-1.614-5.056-2.423-9.536-2.423c-7.608,0-11.621,2.45-12.037,7.347    c-0.21,2.189-0.444,3.908-0.703,5.159c-0.262,1.25-0.809,2.84-1.642,4.768c-0.835,1.93-2.215,3.361-4.143,4.299    c-1.93,0.938-4.353,1.407-7.27,1.407c-9.484,0-14.227-5.21-14.227-15.634v-41.429c0-10.42,4.689-15.634,14.07-15.634    c8.962,0,13.602,4.69,13.914,14.071c0.313,4.899,4.378,7.347,12.195,7.347c4.377,0,7.503-0.806,9.379-2.423    c1.876-1.615,2.814-4.663,2.814-9.146c0-9.692-3.674-17.299-11.021-22.825c-7.348-5.523-16.755-8.286-28.218-8.286    c-11.153,0-20.194,2.971-27.124,8.911c-6.933,5.94-10.396,15.27-10.396,27.983v41.429c0.003,12.72,3.466,22.046,10.398,27.986    c6.93,5.94,15.971,8.911,27.124,8.911c11.464,0,20.87-2.917,28.218-8.754c7.348-5.835,11.021-13.809,11.021-23.919    C399.315,231.979,398.377,228.931,396.501,227.313z" fill="#f37f34"/>
  </g>
</g>
<g>
</g>
<g>
</g>
<g>
</g>
<g>
</g>
<g>
</g>
<g>
</g>
<g>
</g>
<g>
</g>
<g>
</g>
<g>
</g>
<g>
</g>
<g>
</g>
<g>
</g>
<g>
</g>
<g>
</g>
</svg>
